<svg width="25" height="24" viewBox="0 0 25 24" fill="none" xmlns="http://www.w3.org/2000/svg">
<path fill-rule="evenodd" clip-rule="evenodd" d="M11.9463 7.35046C12.8924 7.14756 13.8725 7.2536 14.7617 7.65417C15.6507 8.05473 16.408 8.73104 16.9385 9.59362C17.4023 10.348 17.6763 11.2168 17.7373 12.1141L17.75 12.5008C17.75 13.8746 17.2518 15.197 16.3574 16.1805C15.4625 17.1646 14.2416 17.7311 12.958 17.7499H12.8926C11.6456 17.7527 10.4491 17.2349 9.55078 16.3104C9.50015 16.2595 9.45979 16.198 9.43164 16.1327C9.40282 16.0656 9.38645 15.9935 9.38379 15.9208C9.38118 15.8479 9.39214 15.7741 9.41602 15.7049C9.43994 15.6359 9.477 15.5711 9.52539 15.5155C9.5739 15.4598 9.63376 15.414 9.70117 15.3817C9.76871 15.3494 9.84261 15.3314 9.91797 15.3299C9.99333 15.3285 10.068 15.3441 10.1367 15.3739C10.2034 15.4029 10.2629 15.445 10.3125 15.4969C10.8527 16.0495 11.5291 16.4149 12.2549 16.5507C12.9806 16.6863 13.7285 16.5873 14.4043 16.2645C15.0802 15.9415 15.6569 15.4079 16.0596 14.7274C16.4623 14.0467 16.6721 13.2503 16.6611 12.4383C16.6501 11.6264 16.4188 10.837 15.998 10.1698C15.5772 9.50265 14.9861 8.98743 14.3018 8.68639C13.6178 8.38552 12.8684 8.3107 12.1465 8.4696C11.4243 8.6286 10.7577 9.01569 10.2324 9.58581L10.2236 9.59557L10.2158 9.60338L9.1582 10.6551H10.1475C10.2985 10.6553 10.439 10.7204 10.5391 10.829C10.6385 10.9369 10.6914 11.0799 10.6914 11.2245C10.6913 11.3689 10.6383 11.5111 10.5391 11.619C10.439 11.7275 10.2984 11.7937 10.1475 11.7938H7.79395C7.64289 11.7938 7.50247 11.7276 7.40234 11.619C7.30302 11.5111 7.25008 11.3689 7.25 11.2245V8.67174C7.25 8.52715 7.30288 8.38421 7.40234 8.27624C7.50247 8.16773 7.64292 8.10246 7.79395 8.10241C7.94495 8.10241 8.0854 8.16779 8.18555 8.27624C8.28501 8.38421 8.33789 8.52715 8.33789 8.67174V9.89733L9.46289 8.78112C10.1403 8.05159 11.0037 7.5526 11.9463 7.35046ZM13.1807 17.4901L13.377 17.4715L13.3818 17.4706C13.315 17.4783 13.248 17.4855 13.1807 17.4901ZM9.91309 16.3133C9.90666 16.3074 9.89996 16.3018 9.89355 16.2958L9.88281 16.286C9.89272 16.2953 9.90311 16.3041 9.91309 16.3133Z" fill="#8D98CE"/>
</svg>
