<svg width="40" height="41" viewBox="0 0 40 41" fill="none" xmlns="http://www.w3.org/2000/svg">
<path d="M32 23.5636V31.734C32 31.9372 31.9193 32.132 31.7757 32.2757C31.632 32.4193 31.4372 32.5 31.234 32.5H8.76596C8.56281 32.5 8.36799 32.4193 8.22434 32.2757C8.0807 32.132 8 31.9372 8 31.734V23.5636C8 23.3604 8.0807 23.1656 8.22434 23.0219C8.36799 22.8783 8.56281 22.7976 8.76596 22.7976C8.9691 22.7976 9.16393 22.8783 9.30757 23.0219C9.45122 23.1656 9.53191 23.3604 9.53191 23.5636V30.968H30.4681V23.5636C30.4681 23.3604 30.5488 23.1656 30.6924 23.0219C30.8361 22.8783 31.0309 22.7976 31.234 22.7976C31.4372 22.7976 31.632 22.8783 31.7757 23.0219C31.9193 23.1656 32 23.3604 32 23.5636ZM15.4349 14.9131L19.234 11.1151V23.5636C19.234 23.7667 19.3147 23.9616 19.4584 24.1052C19.602 24.2489 19.7969 24.3296 20 24.3296C20.2031 24.3296 20.398 24.2489 20.5416 24.1052C20.6853 23.9616 20.766 23.7667 20.766 23.5636V11.1151L24.5651 14.9131C24.7103 15.0484 24.9024 15.1221 25.1008 15.1186C25.2992 15.1151 25.4886 15.0347 25.6289 14.8944C25.7692 14.754 25.8496 14.5647 25.8531 14.3662C25.8566 14.1678 25.783 13.9757 25.6477 13.8305L20.5413 8.72401C20.3977 8.58057 20.203 8.5 20 8.5C19.797 8.5 19.6023 8.58057 19.4587 8.72401L14.3523 13.8305C14.217 13.9757 14.1434 14.1678 14.1469 14.3662C14.1504 14.5647 14.2308 14.754 14.3711 14.8944C14.5114 15.0347 14.7008 15.1151 14.8992 15.1186C15.0976 15.1221 15.2897 15.0484 15.4349 14.9131Z" fill="#C8D0F9"/>
</svg>
